<svg xmlns="http://www.w3.org/2000/svg" viewBox="0 0 760 360" role="img" aria-labelledby="title desc">
  <title id="title">Referencia de tamanhos de tshirt</title>
  <desc id="desc">Diagrama simples com medidas de peito, comprimento e ombro para escolher tamanho.</desc>
  <rect width="760" height="360" rx="22" fill="#f7fafb"/>
  <rect x="24" y="24" width="712" height="312" rx="18" fill="#ffffff" stroke="#cfd8df" stroke-width="2"/>
  <path d="M180 95 L250 58 L303 86 C322 96 347 96 366 86 L419 58 L490 95 L452 168 L420 151 L420 292 L250 292 L250 151 L218 168 Z" fill="#1f252b"/>
  <path d="M303 86 C322 107 347 107 366 86" fill="none" stroke="#ffffff" stroke-width="8" stroke-linecap="round"/>
  <path d="M250 151 L250 292 L420 292 L420 151" fill="none" stroke="#78c6b2" stroke-width="5"/>
  <path d="M251 315 L419 315" stroke="#1e7f68" stroke-width="5" stroke-linecap="round"/>
  <path d="M238 298 L238 108" stroke="#de5f50" stroke-width="5" stroke-linecap="round"/>
  <path d="M264 136 L407 136" stroke="#f2a43a" stroke-width="5" stroke-linecap="round"/>
  <path d="M285 69 L384 69" stroke="#5671d8" stroke-width="5" stroke-linecap="round"/>
  <circle cx="250" cy="315" r="7" fill="#1e7f68"/>
  <circle cx="420" cy="315" r="7" fill="#1e7f68"/>
  <circle cx="238" cy="108" r="7" fill="#de5f50"/>
  <circle cx="238" cy="298" r="7" fill="#de5f50"/>
  <circle cx="264" cy="136" r="7" fill="#f2a43a"/>
  <circle cx="407" cy="136" r="7" fill="#f2a43a"/>
  <circle cx="285" cy="69" r="7" fill="#5671d8"/>
  <circle cx="384" cy="69" r="7" fill="#5671d8"/>
  <text x="536" y="95" font-family="Arial, sans-serif" font-size="28" font-weight="700" fill="#1f252b">Como medir</text>
  <g font-family="Arial, sans-serif" font-size="19" fill="#1f252b">
    <rect x="536" y="123" width="18" height="18" rx="4" fill="#de5f50"/>
    <text x="566" y="139">Comprimento</text>
    <rect x="536" y="162" width="18" height="18" rx="4" fill="#f2a43a"/>
    <text x="566" y="178">Peito</text>
    <rect x="536" y="201" width="18" height="18" rx="4" fill="#5671d8"/>
    <text x="566" y="217">Ombro</text>
    <rect x="536" y="240" width="18" height="18" rx="4" fill="#1e7f68"/>
    <text x="566" y="256">Largura da base</text>
  </g>
  <text x="536" y="297" font-family="Arial, sans-serif" font-size="15" fill="#65727d">Medidas aproximadas. Confirmar sempre com o fornecedor.</text>
</svg>
